<?xml version="1.0" encoding="UTF-8"?>
<svg width="29px" height="29px" viewBox="0 0 29 29" version="1.1" xmlns="http://www.w3.org/2000/svg" xmlns:xlink="http://www.w3.org/1999/xlink">
    <!-- Generator: Sketch 43.1 (39012) - http://www.bohemiancoding.com/sketch -->
    <title>facebook-square-brands</title>
    <desc>Created with Sketch.</desc>
    <defs></defs>
    <g id="Page-1" stroke="none" stroke-width="1" fill="none" fill-rule="evenodd">
        <g id="Mobile-Portrait" transform="translate(-264.000000, -578.000000)" fill-rule="nonzero" fill="#D83F38">
            <g id="Social-Media" transform="translate(220.000000, 537.000000)">
                <g id="facebook-square-brands" transform="translate(44.000000, 41.000000)">
                    <path d="M25.8928571,4.59949539e-16 L3.10714286,4.59949539e-16 C1.39111524,0 2.10152773e-16,1.39111524 0,3.10714286 L0,25.8928571 C2.10152773e-16,27.6088848 1.39111524,29 3.10714286,29 L11.9916295,29 L11.9916295,19.1406473 L7.91350446,19.1406473 L7.91350446,14.5 L11.9916295,14.5 L11.9916295,10.9630357 C11.9916295,6.93993304 14.3867188,4.71767857 18.0550893,4.71767857 C19.8119196,4.71767857 21.6490179,5.03098214 21.6490179,5.03098214 L21.6490179,8.97964286 L19.6248438,8.97964286 C17.6304464,8.97964286 17.0083705,10.2173214 17.0083705,11.4867188 L17.0083705,14.5 L21.4606473,14.5 L20.7485938,19.1406473 L17.0083705,19.1406473 L17.0083705,29 L25.8928571,29 C27.6088848,29 29,27.6088848 29,25.8928571 L29,3.10714286 C29,1.39111524 27.6088848,0 25.8928571,0 L25.8928571,4.59949539e-16 Z" id="Shape"></path>
                </g>
            </g>
        </g>
    </g>
</svg>