<?xml version="1.0" encoding="UTF-8"?>
<svg width="29px" height="29px" viewBox="0 0 29 29" version="1.1" xmlns="http://www.w3.org/2000/svg" xmlns:xlink="http://www.w3.org/1999/xlink">
    <!-- Generator: Sketch 43.1 (39012) - http://www.bohemiancoding.com/sketch -->
    <title>twitter-square-brands</title>
    <desc>Created with Sketch.</desc>
    <defs></defs>
    <g id="Page-1" stroke="none" stroke-width="1" fill="none" fill-rule="evenodd">
        <g id="Mobile-Portrait" transform="translate(-220.000000, -537.000000)" fill-rule="nonzero" fill="#D83F38">
            <g id="Social-Media" transform="translate(220.000000, 537.000000)">
                <g id="twitter-square-brands">
                    <path d="M25.8928571,0 L3.10714286,0 C1.39174107,0 0,1.39174107 0,3.10714286 L0,25.8928571 C0,27.6082589 1.39174107,29 3.10714286,29 L25.8928571,29 C27.6082589,29 29,27.6082589 29,25.8928571 L29,3.10714286 C29,1.39174107 27.6082589,0 25.8928571,0 Z M22.7274554,10.2794643 C22.7404018,10.4607143 22.7404018,10.6484375 22.7404018,10.8296875 C22.7404018,16.4419643 18.4680804,22.9087054 10.6613839,22.9087054 C8.25334821,22.9087054 6.02008929,22.2095982 4.14285714,21.0055804 C4.4859375,21.0444196 4.81607143,21.0573661 5.165625,21.0573661 C7.15290179,21.0573661 8.97834821,20.3841518 10.4348214,19.2448661 C8.57053571,19.2060268 7.00401786,17.9825893 6.46674107,16.2995536 C7.12053571,16.3966518 7.70959821,16.3966518 8.3828125,16.221875 C6.44084821,15.8270089 4.984375,14.1180804 4.984375,12.053125 L4.984375,12.0013393 C5.54754464,12.3185268 6.2078125,12.5127232 6.90044643,12.5386161 C5.71769189,11.7518854 5.00794228,10.4247509 5.01026786,9.00424107 C5.01026786,8.21450893 5.21741071,7.48950893 5.58638393,6.86160714 C7.67723214,9.43794643 10.8167411,11.1209821 14.3381696,11.3022321 C13.7361607,8.42165179 15.8917411,6.08482143 18.4810268,6.08482143 C19.7044643,6.08482143 20.8049107,6.59620536 21.5816964,7.42477679 C22.5397321,7.24352679 23.4589286,6.8875 24.2745536,6.40200893 C23.9573661,7.3859375 23.290625,8.21450893 22.4102679,8.73883929 C23.2647321,8.64821429 24.0933036,8.40870536 24.8571429,8.07857143 C24.2810268,8.9265625 23.5560268,9.67745536 22.7274554,10.2794643 L22.7274554,10.2794643 Z" id="Shape"></path>
                </g>
            </g>
        </g>
    </g>
</svg>